o Box 1
v 2.131428552205037 4.801709845615475 2.1400000000000006
v 2.131428552205037 4.801709845615475 -2.1400000000000006
v 2.131428552205037 0.5217098456154745 2.1400000000000006
v 2.131428552205037 0.5217098456154745 -2.1400000000000006
v -2.14857144779496 4.801709845615475 -2.1400000000000006
v -2.14857144779496 4.801709845615475 2.1400000000000006
v -2.14857144779496 0.5217098456154745 -2.1400000000000006
v -2.14857144779496 0.5217098456154745 2.1400000000000006
v -2.14857144779496 4.801709845615475 -2.1400000000000006
v 2.131428552205037 4.801709845615475 -2.1400000000000006
v -2.14857144779496 4.801709845615475 2.1400000000000006
v 2.131428552205037 4.801709845615475 2.1400000000000006
v -2.14857144779496 0.5217098456154745 2.1400000000000006
v 2.131428552205037 0.5217098456154745 2.1400000000000006
v -2.14857144779496 0.5217098456154745 -2.1400000000000006
v 2.131428552205037 0.5217098456154745 -2.1400000000000006
v -2.14857144779496 4.801709845615475 2.1400000000000006
v 2.131428552205037 4.801709845615475 2.1400000000000006
v -2.14857144779496 0.5217098456154745 2.1400000000000006
v 2.131428552205037 0.5217098456154745 2.1400000000000006
v 2.131428552205037 4.801709845615475 -2.1400000000000006
v -2.14857144779496 4.801709845615475 -2.1400000000000006
v 2.131428552205037 0.5217098456154745 -2.1400000000000006
v -2.14857144779496 0.5217098456154745 -2.1400000000000006
vt 0 1
vt 1 1
vt 0 0
vt 1 0
vt 0 1
vt 1 1
vt 0 0
vt 1 0
vt 0 1
vt 1 1
vt 0 0
vt 1 0
vt 0 1
vt 1 1
vt 0 0
vt 1 0
vt 0 1
vt 1 1
vt 0 0
vt 1 0
vt 0 1
vt 1 1
vt 0 0
vt 1 0
vn 0.23364485981308428 0 0
vn 0.23364485981308428 0 0
vn 0.23364485981308428 0 0
vn 0.23364485981308428 0 0
vn -0.23364485981308428 0 0
vn -0.23364485981308428 0 0
vn -0.23364485981308428 0 0
vn -0.23364485981308428 0 0
vn 0 0.23364485981308405 0
vn 0 0.23364485981308405 0
vn 0 0.23364485981308405 0
vn 0 0.23364485981308405 0
vn 0 -0.23364485981308405 0
vn 0 -0.23364485981308405 0
vn 0 -0.23364485981308405 0
vn 0 -0.23364485981308405 0
vn 0 0 0.233644859813084
vn 0 0 0.233644859813084
vn 0 0 0.233644859813084
vn 0 0 0.233644859813084
vn 0 0 -0.233644859813084
vn 0 0 -0.233644859813084
vn 0 0 -0.233644859813084
vn 0 0 -0.233644859813084
f 1/1/1 3/3/3 2/2/2
f 3/3/3 4/4/4 2/2/2
f 5/5/5 7/7/7 6/6/6
f 7/7/7 8/8/8 6/6/6
f 9/9/9 11/11/11 10/10/10
f 11/11/11 12/12/12 10/10/10
f 13/13/13 15/15/15 14/14/14
f 15/15/15 16/16/16 14/14/14
f 17/17/17 19/19/19 18/18/18
f 19/19/19 20/20/20 18/18/18
f 21/21/21 23/23/23 22/22/22
f 23/23/23 24/24/24 22/22/22
